# xmcd
#
# Track frame offsets:
#  150
#  14940
#  28304
#  44260
#  56233
#  67089
#  83388
#  100533
#  113321
#  126893
#  145956
#  161503
#  176705
#  188672
#  198849
#  212515
#
# Disc length: 2997 seconds
#
# Revision: 0
# Processed by: cddbd v1.5.1PL2 Copyright (c) Steve Scherf et al.
# Submitted via: Collectorz.com_Music_Collector 6.9
#
DISCID=db0bb310
DTITLE=Various Artist - Country Songs [CD1]
DYEAR=2006
DGENRE=General Country
TTITLE0=John Denver - Take My Home Country Road
TTITLE1=Lynn Anderson - Rose Garden
TTITLE2=Brenda Lee - Youre the One, that I Want
TTITLE3=Kenny Rogers - Me and Bobby Mc Gee
TTITLE4=Roger Miller - King of the Road
TTITLE5=Don Gibson - Green Green Gras of Home
TTITLE6=Lynn Anderson - Blue Bayou
TTITLE7=Johnny Cash - Ring of Fire
TTITLE8=Billie Joe Spears - Fever
TTITLE9=John Denver - Rocky Moutain High
TTITLE10=Kenny Rogers - For A Good Time
TTITLE11=Lynn Anderson - Desperado
TTITLE12=Wanda Jackson - Sweet Dreams
TTITLE13=Brenda Lee - I Am Sorry
TTITLE14=Kenny Rogers - Ruby Dont Take
TTITLE15=Lynn Anderson - Stand by Your Man
EXTD=
EXTT0=
EXTT1=
EXTT2=
EXTT3=
EXTT4=
EXTT5=
EXTT6=
EXTT7=
EXTT8=
EXTT9=
EXTT10=
EXTT11=
EXTT12=
EXTT13=
EXTT14=
EXTT15=
PLAYORDER=
